<svg width="20" height="14" viewBox="0 0 20 14" fill="none" xmlns="http://www.w3.org/2000/svg">
<path fill-rule="evenodd" clip-rule="evenodd" d="M17.8252 0.426747C18.6818 0.657389 19.3573 1.33284 19.5879 2.18951C20.0163 3.75458 19.9998 7.01651 19.9998 7.01651C19.9998 7.01651 19.9998 10.262 19.5879 11.827C19.3573 12.6837 18.6818 13.3591 17.8252 13.5898C16.2601 14.0016 9.99984 14.0016 9.99984 14.0016C9.99984 14.0016 3.75604 14.0016 2.1745 13.5733C1.31783 13.3427 0.642379 12.6672 0.411738 11.8106C-0.00012207 10.262 -0.00012207 7.00003 -0.00012207 7.00003C-0.00012207 7.00003 -0.00012207 3.75458 0.411738 2.18951C0.642379 1.33284 1.3343 0.640914 2.1745 0.410273C3.73957 -0.00158691 9.99984 -0.00158691 9.99984 -0.00158691C9.99984 -0.00158691 16.2601 -0.00158691 17.8252 0.426747ZM13.2121 6.99995L8.00621 9.99829V4.00161L13.2121 6.99995Z" fill="#123D4B"/>
</svg>
